PathFileType	4	(X/Y/Z)	C:\Users\chris\Documents\GitHub\baseballds\vids\pitch7_Sports2D\pitch7_Sports2D_px_person00.trc
DataRate	CameraRate	NumFrames	NumMarkers	Units	OrigDataRate	OrigDataStartFrame	OrigNumFrames
30	30	12	22	m	30	118	236
Frame#	Time	Hip			RHip			RKnee			RAnkle			RBigToe			RSmallToe			RHeel			LHip			LKnee			LAnkle			LBigToe			LSmallToe			LHeel			Neck			Head			Nose			RShoulder			RElbow			RWrist			LShoulder			LElbow			LWrist		
		X1	Y1	Z1	X2	Y2	Z2	X3	Y3	Z3	X4	Y4	Z4	X5	Y5	Z5	X6	Y6	Z6	X7	Y7	Z7	X8	Y8	Z8	X9	Y9	Z9	X10	Y10	Z10	X11	Y11	Z11	X12	Y12	Z12	X13	Y13	Z13	X14	Y14	Z14	X15	Y15	Z15	X16	Y16	Z16	X17	Y17	Z17	X18	Y18	Z18	X19	Y19	Z19	X20	Y20	Z20	X21	Y21	Z21	X22	Y22	Z22
118	3.933333333333333	811.3079895500475	536.2505654723133	0.0	763.14669720503	549.2091859799762	0.0	769.599382088967	722.2045288591071	0.0	763.5076817042639	878.7915511876313	0.0	774.7333353088204	933.4569528822125	0.0	743.0286895780512	932.2749716922093	0.0	767.5140392676009	900.5601862389781	0.0	860.1554049752361	548.7439066935133	0.0	893.0297598620846	714.9904470398545	0.0	934.9421952798216	861.3200674970033	0.0	917.1439971681572	923.9475567895315	0.0	948.4133677718681	921.2636048899597	0.0	940.9666433490731	884.2993506789014	0.0	802.6502348176704	273.49417437702044	0.0	798.350689123094	148.46797090958876	0.0	808.0510176684561	207.7862188326265	0.0	720.5902942674018	323.25531785234057	0.0	706.2415923678157	453.3783815847043	0.0	774.9991746149058	467.0237371798806	0.0	887.5498973191527	306.0933860092364	0.0	903.952310433828	430.22973776375045	0.0	874.4618188069727	475.37495404639617	0.0
119	3.966666666666667	811.6260926092967	535.8788408661732	0.0	763.0879709258817	548.9254071211947	0.0	771.2768780988592	722.126660017236	0.0	764.647475150246	878.7519167851319	0.0	775.4487751651936	932.6769815252605	0.0	743.9623456508417	931.4878692162677	0.0	769.2371713082981	900.7953120466175	0.0	860.2139485500427	548.5553053067065	0.0	893.0283404568487	714.0991208651097	0.0	936.0481447894986	860.0786632684521	0.0	915.9029707290913	921.9158883415718	0.0	947.1524715121343	919.003957467513	0.0	943.0523235747634	883.9425854659701	0.0	803.1096662449633	272.5343502783854	0.0	799.3610024643405	147.53578389518515	0.0	810.0476258235849	207.33366747492357	0.0	720.7534565105939	322.5093184726153	0.0	706.8456694847994	452.2901263286769	0.0	777.390968797064	468.1305040218557	0.0	886.6575008142195	305.84429152066855	0.0	904.4509287559049	430.7148234957252	0.0	874.0063705879112	474.8695226409949	0.0
120	4.0	812.4461415115721	535.8021776265285	0.0	763.6791553822375	549.4371135541495	0.0	773.287319528353	721.579182535952	0.0	765.7861253778403	878.8043859811536	0.0	775.6121331681173	933.5673375900741	0.0	744.6666397085362	932.0863391787602	0.0	770.9842768640818	900.9679156020798	0.0	861.2302889094344	548.065207714038	0.0	893.3052524212943	714.8423495384468	0.0	937.2679359974538	860.5480064779335	0.0	913.685167175794	921.280024607227	0.0	944.9026182443656	918.3617660042949	0.0	946.0709338547731	884.6734386011861	0.0	804.2122239403991	271.6350505575466	0.0	800.4237029369989	146.31930900036346	0.0	811.4916822688664	205.56699600508358	0.0	721.4465736621942	322.2961663615691	0.0	708.607024548867	453.04156046771095	0.0	779.1466912296606	467.60041071982096	0.0	886.8642660812412	306.497168948781	0.0	905.1439478293819	432.65744967126795	0.0	872.5702484126319	475.5165896318832	0.0
121	4.033333333333333	813.7835857779659	537.2637567883047	0.0	765.3099350949009	550.7304034881074	0.0	775.1043196253956	720.1736356834032	0.0	766.8611982329513	878.8350544514735	0.0	776.3343360195056	934.3170150502077	0.0	745.3624661990975	932.7219048976011	0.0	772.1437094790642	900.6591391742475	0.0	863.519131216234	548.0367516128865	0.0	894.8350106876472	716.6720148405582	0.0	938.8178905587479	862.0264291503603	0.0	913.1326495900232	922.1409034865862	0.0	944.1819424436189	919.8734921169347	0.0	949.1190701093012	886.05196128133	0.0	805.475453153339	272.52041119598334	0.0	801.7380083710731	146.4412587484789	0.0	813.1672911103522	204.3672357396833	0.0	722.9044116586562	323.3527184703377	0.0	711.4864475310789	455.12808057912605	0.0	778.7815363463196	467.041023199713	0.0	888.2742697597068	307.5466524169176	0.0	906.5512590063354	434.01322863998297	0.0	872.2914569552491	476.58728857021896	0.0
122	4.066666666666666	816.1036379014453	539.5821725074164	0.0	768.5016244008049	551.8032615837261	0.0	776.798114253857	719.1026227065582	0.0	767.8405051661233	878.5087785562142	0.0	777.7564320435868	933.9228503301431	0.0	746.2715830398588	932.3860328263281	0.0	772.9592845250991	899.540790965699	0.0	866.336621613033	548.8529934559441	0.0	896.8656562520861	717.8412784884686	0.0	940.5638885496828	862.9652532810464	0.0	914.831450884462	922.8704080078959	0.0	945.3663306634978	921.2740901562636	0.0	951.4762099069907	886.8940769907407	0.0	807.0921556839792	274.9895345262135	0.0	803.974000477802	148.007914381563	0.0	815.7860562550397	205.41204758742316	0.0	724.9701308738909	325.60117710272897	0.0	714.7575946818354	457.72098822240173	0.0	777.5513377326007	467.97287372041905	0.0	890.7020733131548	309.35296308943293	0.0	908.4387629623568	435.5173332768988	0.0	873.4295987228196	478.0797237280015	0.0
123	4.1	819.3201321153508	541.3385981157555	0.0	772.661692699506	552.5419917202354	0.0	778.7218472362301	719.1348921015796	0.0	768.9645823331016	878.1438321748077	0.0	779.3005528389766	933.5635844167274	0.0	747.6553934834166	932.0392763511122	0.0	773.9477875390058	898.5603294920097	0.0	868.8382728255328	550.3860333402971	0.0	898.2343125425991	718.0017402139925	0.0	942.0360847324215	862.7136573812488	0.0	916.7704715636228	922.5136637366174	0.0	946.8873050798543	921.0511027414219	0.0	953.253631286851	886.4091747547698	0.0	809.5431826103794	277.1066431785029	0.0	807.0835024134752	149.49202881456284	0.0	818.6564973799759	207.80828477455535	0.0	727.420435759363	327.8599876261322	0.0	717.6434059960501	459.6231015242743	0.0	776.5429851419865	469.5097319615918	0.0	893.5571176675204	311.64823068885977	0.0	910.0413770420637	437.57524351447563	0.0	875.3332143512316	479.2984080758252	0.0
124	4.133333333333333	822.3468361032733	542.1857031431396	0.0	776.269380281966	553.4375914935578	0.0	780.9880000256352	719.0527814378772	0.0	770.326301174131	878.7257352763277	0.0	780.7428867849236	934.0159082966345	0.0	749.2321726021063	932.5912616399969	0.0	774.9490949637031	899.0768869343879	0.0	870.9051347532309	552.120400218041	0.0	898.9930112162574	718.275338291118	0.0	942.7775088105493	862.086288444731	0.0	917.5662140889153	922.0228564900111	0.0	947.9466604835217	920.5657890963502	0.0	954.6460017086673	885.3390087060866	0.0	812.5499709792686	277.61799211269664	0.0	810.2729530623199	149.84003221073354	0.0	820.9755370589371	209.42726692784606	0.0	730.0843425278973	329.0778337505884	0.0	719.9754686000111	459.739143829299	0.0	775.2065907503835	469.7020853735271	0.0	895.7733373517332	312.9048114418822	0.0	911.3714808957975	437.466832706843	0.0	878.2782508905225	478.61796981559166	0.0
125	4.166666666666667	824.3710659891782	542.1276293760226	0.0	778.451772249554	553.8981824952426	0.0	783.044213511028	718.6806433669748	0.0	771.5281457920164	880.2549961491385	0.0	781.8303492176142	934.5472601671102	0.0	750.2604066192963	933.1651581514794	0.0	775.712943738218	900.5318003711741	0.0	872.8215629665467	553.0891369890257	0.0	899.8251522629157	719.0479060541654	0.0	942.702743762404	862.1559040218497	0.0	917.7766202971821	922.3752201551384	0.0	948.7353389719469	921.0875036328426	0.0	955.2420143218271	884.8383592415572	0.0	815.3911789801	276.86797352779536	0.0	813.1228322367489	149.12199441720261	0.0	822.8543778168913	209.49535146693478	0.0	732.6817974549202	328.8199114787925	0.0	721.8227063297077	457.9025717681815	0.0	773.788059384241	468.1031125170572	0.0	896.8264824116574	312.29333368174684	0.0	913.1877225385116	433.873753746584	0.0	881.7044590293243	476.26132132314837	0.0
126	4.2	825.986360134391	540.8758537904912	0.0	779.8531733777365	553.0631585300115	0.0	784.131491910389	719.186408376995	0.0	772.1730539586524	880.9445241684462	0.0	782.1067245523764	934.3642168519989	0.0	750.4660204218803	932.6084013264492	0.0	776.3827803385088	900.7847383821572	0.0	874.6076900876662	552.5196409403959	0.0	900.8631664777689	719.561644088379	0.0	942.4017317124428	863.280714703627	0.0	918.0299898311388	923.2715681596461	0.0	948.9749071212082	922.1221132493022	0.0	954.9500697392398	885.6307397844143	0.0	817.7075295951084	275.7760420316955	0.0	815.9195525161111	147.82423233860524	0.0	824.8486125661692	208.94643534573268	0.0	734.8798729604437	327.34612430831163	0.0	722.8192994974064	455.22850900993444	0.0	774.4908608703691	465.8952406462778	0.0	897.46353830388	310.9404169917224	0.0	915.4900003837571	430.30554421659593	0.0	883.7097751783022	474.444768702053	0.0
127	4.233333333333333	827.9827107391363	538.920889634869	0.0	781.4558958668589	551.5015996889038	0.0	784.2460518968157	719.7274308265197	0.0	772.3211953828996	879.4983166678803	0.0	781.9597487099433	933.2312706880599	0.0	750.4099340906661	930.9580539931931	0.0	776.9056344614245	899.2261080421124	0.0	876.0338137799095	550.6525562342309	0.0	901.6752108771293	719.211894763336	0.0	942.5824766238911	864.5297812554581	0.0	918.4031518818408	924.0108453302364	0.0	948.625891461855	922.927183077365	0.0	954.6226507340739	887.329487480353	0.0	819.473993742044	274.769070039103	0.0	818.8419084346787	146.73540688886501	0.0	827.1658030594177	208.75620486491454	0.0	736.557969749116	325.7033552542921	0.0	722.7708972612993	453.35916415388255	0.0	778.4115712948171	464.0604856442433	0.0	898.7460271812233	310.15590037180124	0.0	917.6821557843407	429.85917990458256	0.0	884.1565356750598	474.0171560078102	0.0
128	4.266666666666667	829.6612944709619	537.7469769122488	0.0	782.7050443135745	550.5409554812949	0.0	783.9967344959439	718.9147147646835	0.0	772.2354795917659	877.39244414797	0.0	782.3287147957112	931.5779081021781	0.0	750.894005066446	929.1255895170789	0.0	777.0067754793129	897.7963487503742	0.0	876.7148054972083	548.7888301743036	0.0	902.0371691652384	718.4186338658368	0.0	943.24588901271	864.3698506744629	0.0	919.0453628087826	924.3071582289972	0.0	948.7707903466676	923.236236497189	0.0	954.9222316013019	887.9260487953849	0.0	820.9244795334815	273.9889589023452	0.0	821.7153684475178	146.7199574182677	0.0	829.559133467772	208.78378490168416	0.0	738.1857540927037	324.5521510852296	0.0	722.2201019008508	452.46218914642463	0.0	782.6620404527664	462.70707179109183	0.0	900.8908473403296	310.0416099330545	0.0	919.8464074396246	431.1797969659277	0.0	884.7407674564338	473.7047451906485	0.0
129	4.3	830.1667997243183	537.895229355978	0.0	782.7207456497274	550.2677213023974	0.0	783.98232291915	717.5906781904499	0.0	772.2538182813508	876.6848958926087	0.0	783.3717455260366	930.3552968754868	0.0	752.0984731844677	928.1500888531369	0.0	776.8130673801262	897.9159267990179	0.0	876.4686808081502	547.9595382972769	0.0	902.2751169850405	718.0600192171986	0.0	944.0232858270596	862.9091977418079	0.0	919.8947890048553	924.233822472909	0.0	949.8180721071217	922.938573915085	0.0	955.6992716891064	886.3204374015322	0.0	822.5443697584478	273.68688788937925	0.0	824.2658326393247	147.6910420030701	0.0	831.7986505039659	208.60847265768163	0.0	740.4636061590672	323.37764424686327	0.0	721.800765527945	451.4902823998668	0.0	783.8421966759418	461.9846376087345	0.0	903.2920207053177	310.3513739324093	0.0	922.2731488834111	432.3299456490142	0.0	885.9165678429788	472.7776156655502	0.0
